<mxfile host="app.diagrams.net" agent="Mozilla/5.0 (Windows NT 10.0; Win64; x64) AppleWebKit/537.36 (KHTML, like Gecko) Chrome/129.0.0.0 Safari/537.36 Edg/129.0.0.0" version="24.7.17">
  <diagram name="PÃ¡gina-1" id="8W3orzAq2vKqcyBzR6Lb">
    <mxGraphModel dx="1333" dy="847" grid="1" gridSize="10" guides="1" tooltips="1" connect="1" arrows="1" fold="1" page="1" pageScale="1" pageWidth="827" pageHeight="1169" math="0" shadow="0">
      <root>
        <mxCell id="0" />
        <mxCell id="1" parent="0" />
        <mxCell id="t6CagWGEyhnJGD9LPrKG-2" value="&lt;font style=&quot;font-size: 17px;&quot;&gt;Kaagle.com&lt;/font&gt;" style="ellipse;shape=cloud;whiteSpace=wrap;html=1;fontSize=27;" vertex="1" parent="1">
          <mxGeometry x="325" y="220" width="290" height="140" as="geometry" />
        </mxCell>
        <mxCell id="t6CagWGEyhnJGD9LPrKG-4" value="&lt;span style=&quot;font-size:12.0pt;line-height:&lt;br/&gt;115%;font-family:&amp;quot;Segoe UI&amp;quot;,&amp;quot;sans-serif&amp;quot;;mso-fareast-font-family:&amp;quot;Times New Roman&amp;quot;;&lt;br/&gt;color:#3366FF;mso-ansi-language:#0003;mso-fareast-language:ES;mso-bidi-language:&lt;br/&gt;AR-SA&quot; lang=&quot;ca&quot;&gt;Titanic - Machine Learning from Disaster&lt;/span&gt;" style="rounded=1;whiteSpace=wrap;html=1;" vertex="1" parent="1">
          <mxGeometry x="270" y="429" width="380" height="80" as="geometry" />
        </mxCell>
        <mxCell id="t6CagWGEyhnJGD9LPrKG-8" value="" style="endArrow=classic;html=1;rounded=0;entryX=0.5;entryY=0;entryDx=0;entryDy=0;exitX=0.47;exitY=0.938;exitDx=0;exitDy=0;exitPerimeter=0;" edge="1" parent="1" source="t6CagWGEyhnJGD9LPrKG-2" target="t6CagWGEyhnJGD9LPrKG-4">
          <mxGeometry width="50" height="50" relative="1" as="geometry">
            <mxPoint x="460" y="360" as="sourcePoint" />
            <mxPoint x="453" y="430" as="targetPoint" />
          </mxGeometry>
        </mxCell>
        <mxCell id="t6CagWGEyhnJGD9LPrKG-10" value="Train.csv" style="rounded=1;whiteSpace=wrap;html=1;" vertex="1" parent="1">
          <mxGeometry x="320" y="880" width="130" height="60" as="geometry" />
        </mxCell>
        <mxCell id="t6CagWGEyhnJGD9LPrKG-12" value="Test.csv" style="rounded=1;whiteSpace=wrap;html=1;" vertex="1" parent="1">
          <mxGeometry x="490" y="880" width="120" height="60" as="geometry" />
        </mxCell>
        <mxCell id="t6CagWGEyhnJGD9LPrKG-13" value="" style="endArrow=classic;html=1;rounded=0;" edge="1" parent="1" target="t6CagWGEyhnJGD9LPrKG-10">
          <mxGeometry width="50" height="50" relative="1" as="geometry">
            <mxPoint x="384" y="770" as="sourcePoint" />
            <mxPoint x="570" y="339" as="targetPoint" />
          </mxGeometry>
        </mxCell>
        <mxCell id="t6CagWGEyhnJGD9LPrKG-14" value="" style="endArrow=classic;html=1;rounded=0;exitX=0.855;exitY=1;exitDx=0;exitDy=-4.35;exitPerimeter=0;entryX=0.5;entryY=0;entryDx=0;entryDy=0;" edge="1" parent="1" source="t6CagWGEyhnJGD9LPrKG-18" target="t6CagWGEyhnJGD9LPrKG-12">
          <mxGeometry width="50" height="50" relative="1" as="geometry">
            <mxPoint x="557.9000000000001" y="508.9999999999999" as="sourcePoint" />
            <mxPoint x="590" y="337.64" as="targetPoint" />
          </mxGeometry>
        </mxCell>
        <mxCell id="t6CagWGEyhnJGD9LPrKG-18" value="&lt;font style=&quot;font-size: 14px;&quot;&gt;Datasets&lt;/font&gt;" style="shape=cylinder3;whiteSpace=wrap;html=1;boundedLbl=1;backgroundOutline=1;size=15;" vertex="1" parent="1">
          <mxGeometry x="360" y="675" width="220" height="130" as="geometry" />
        </mxCell>
        <mxCell id="t6CagWGEyhnJGD9LPrKG-21" value="TitanicScraper" style="ellipse;whiteSpace=wrap;html=1;fontSize=15;" vertex="1" parent="1">
          <mxGeometry x="400" y="540" width="120" height="80" as="geometry" />
        </mxCell>
        <mxCell id="t6CagWGEyhnJGD9LPrKG-22" value="" style="endArrow=classic;html=1;rounded=0;exitX=0.5;exitY=1;exitDx=0;exitDy=0;entryX=0.5;entryY=0;entryDx=0;entryDy=0;" edge="1" parent="1" source="t6CagWGEyhnJGD9LPrKG-4" target="t6CagWGEyhnJGD9LPrKG-21">
          <mxGeometry width="50" height="50" relative="1" as="geometry">
            <mxPoint x="520" y="480" as="sourcePoint" />
            <mxPoint x="570" y="430" as="targetPoint" />
          </mxGeometry>
        </mxCell>
        <mxCell id="t6CagWGEyhnJGD9LPrKG-23" value="" style="endArrow=classic;html=1;rounded=0;exitX=0.5;exitY=1;exitDx=0;exitDy=0;entryX=0.455;entryY=0.115;entryDx=0;entryDy=0;entryPerimeter=0;" edge="1" parent="1" source="t6CagWGEyhnJGD9LPrKG-21" target="t6CagWGEyhnJGD9LPrKG-18">
          <mxGeometry width="50" height="50" relative="1" as="geometry">
            <mxPoint x="520" y="480" as="sourcePoint" />
            <mxPoint x="540" y="620" as="targetPoint" />
          </mxGeometry>
        </mxCell>
        <mxCell id="t6CagWGEyhnJGD9LPrKG-24" value="Model" style="ellipse;whiteSpace=wrap;html=1;" vertex="1" parent="1">
          <mxGeometry x="325" y="990" width="120" height="80" as="geometry" />
        </mxCell>
        <mxCell id="t6CagWGEyhnJGD9LPrKG-25" value="" style="endArrow=classic;html=1;rounded=0;exitX=0.5;exitY=1;exitDx=0;exitDy=0;" edge="1" parent="1" source="t6CagWGEyhnJGD9LPrKG-10" target="t6CagWGEyhnJGD9LPrKG-24">
          <mxGeometry width="50" height="50" relative="1" as="geometry">
            <mxPoint x="520" y="880" as="sourcePoint" />
            <mxPoint x="570" y="830" as="targetPoint" />
          </mxGeometry>
        </mxCell>
        <mxCell id="t6CagWGEyhnJGD9LPrKG-26" value="" style="endArrow=none;html=1;rounded=0;" edge="1" parent="1">
          <mxGeometry width="50" height="50" relative="1" as="geometry">
            <mxPoint x="445" y="1030" as="sourcePoint" />
            <mxPoint x="550" y="1030" as="targetPoint" />
          </mxGeometry>
        </mxCell>
        <mxCell id="t6CagWGEyhnJGD9LPrKG-27" value="" style="endArrow=classic;html=1;rounded=0;entryX=0.5;entryY=1;entryDx=0;entryDy=0;" edge="1" parent="1" target="t6CagWGEyhnJGD9LPrKG-12">
          <mxGeometry width="50" height="50" relative="1" as="geometry">
            <mxPoint x="550" y="1030" as="sourcePoint" />
            <mxPoint x="570" y="830" as="targetPoint" />
          </mxGeometry>
        </mxCell>
        <mxCell id="t6CagWGEyhnJGD9LPrKG-28" value="" style="endArrow=classic;html=1;rounded=0;" edge="1" parent="1" target="t6CagWGEyhnJGD9LPrKG-29">
          <mxGeometry width="50" height="50" relative="1" as="geometry">
            <mxPoint x="610" y="910" as="sourcePoint" />
            <mxPoint x="660" y="910" as="targetPoint" />
          </mxGeometry>
        </mxCell>
        <mxCell id="t6CagWGEyhnJGD9LPrKG-29" value="Conclusions" style="rounded=1;whiteSpace=wrap;html=1;" vertex="1" parent="1">
          <mxGeometry x="660" y="880" width="120" height="60" as="geometry" />
        </mxCell>
      </root>
    </mxGraphModel>
  </diagram>
</mxfile>
